<svg width="209" height="25" viewBox="0 0 209 25" fill="none" xmlns="http://www.w3.org/2000/svg">
  <path fill-rule="evenodd" clip-rule="evenodd" d="M7.60897 16.0108C9.10766 16.0108 10.4747 15.2645 11.2634 14.4377V9.10475C10.5011 8.27792 9.13411 7.47792 7.60897 7.47792C4.84847 7.47792 3.08708 9.34439 3.08708 11.7712C3.08708 14.1712 4.84847 16.0108 7.60897 16.0108ZM6.87256 5.05109C8.8185 5.05109 10.2907 5.71817 11.2634 6.70475V5.29134H13.9975V17.7444C13.9975 22.1974 11.1847 24.5176 7.34627 24.5176C4.63866 24.5176 3.00833 23.531 2.14086 23.0773L2.74562 20.5974C3.61309 21.1572 5.21697 22.0645 7.34627 22.0645C9.42326 22.0645 11.2634 20.998 11.2634 18.3048V16.8109C10.2643 17.7444 8.73915 18.4377 6.87256 18.4377C2.92958 18.4377 0.30072 15.4243 0.30072 11.7712C0.30072 8.06512 2.92958 5.05109 6.87256 5.05109Z" fill="#15573F"/>
  <path d="M11.2634 14.4377L11.4805 14.6447L11.5634 14.5578V14.4377H11.2634ZM11.2634 9.10475H11.5634V8.98757L11.484 8.90141L11.2634 9.10475ZM11.2634 6.70475L11.0498 6.91537L11.5634 7.43635V6.70475H11.2634ZM11.2634 5.29134V4.99134H10.9634V5.29134H11.2634ZM13.9975 5.29134H14.2975V4.99134H13.9975V5.29134ZM2.14086 23.0773L1.8494 23.0062L1.79377 23.2343L2.00183 23.3432L2.14086 23.0773ZM2.74562 20.5974L2.90828 20.3454L2.55405 20.1168L2.45416 20.5264L2.74562 20.5974ZM11.2634 16.8109H11.5634V16.12L11.0586 16.5916L11.2634 16.8109ZM7.60897 16.3109C9.20155 16.3109 10.6439 15.5217 11.4805 14.6447L11.0463 14.2306C10.3055 15.0073 9.01376 15.7108 7.60897 15.7108V16.3109ZM11.5634 14.4377V9.10475H10.9634V14.4377H11.5634ZM11.484 8.90141C10.6764 8.02541 9.23345 7.17792 7.60897 7.17792V7.77792C9.03476 7.77792 10.3259 8.53043 11.0428 9.3081L11.484 8.90141ZM7.60897 7.17792C6.15924 7.17792 4.95046 7.66931 4.10282 8.50028C3.25553 9.33092 2.78708 10.4835 2.78708 11.7712H3.38708C3.38708 10.6321 3.79933 9.63804 4.52285 8.92874C5.24604 8.21977 6.2982 7.77792 7.60897 7.77792V7.17792ZM2.78708 11.7712C2.78708 13.0467 3.25634 14.1863 4.10423 15.0066C4.95216 15.827 6.16052 16.3109 7.60897 16.3109V15.7108C6.29692 15.7108 5.24433 15.2748 4.52144 14.5754C3.79851 13.876 3.38708 12.8958 3.38708 11.7712H2.78708ZM6.87256 5.35109C8.74678 5.35109 10.1392 5.99181 11.0498 6.91537L11.477 6.49413C10.4422 5.44453 8.89022 4.75109 6.87256 4.75109V5.35109ZM11.5634 6.70475V5.29134H10.9634V6.70475H11.5634ZM11.2634 5.59134H13.9975V4.99134H11.2634V5.59134ZM13.6975 5.29134V17.7444H14.2975V5.29134H13.6975ZM13.6975 17.7444C13.6975 19.9058 13.0166 21.5149 11.9034 22.5845C10.788 23.6563 9.20585 24.2176 7.34627 24.2176V24.8176C9.32507 24.8176 11.0685 24.2188 12.3191 23.0172C13.5719 21.8135 14.2975 20.0361 14.2975 17.7444H13.6975ZM7.34627 24.2176C4.71988 24.2176 3.14842 23.2657 2.27989 22.8115L2.00183 23.3432C2.86824 23.7963 4.55744 24.8176 7.34627 24.8176V24.2176ZM2.43232 23.1484L3.03708 20.6685L2.45416 20.5264L1.8494 23.0062L2.43232 23.1484ZM2.58296 20.8495C3.46757 21.4203 5.13079 22.3645 7.34627 22.3645V21.7645C5.30316 21.7645 3.75861 20.8941 2.90828 20.3454L2.58296 20.8495ZM7.34627 22.3645C8.43151 22.3645 9.487 22.0863 10.2764 21.4245C11.0746 20.7555 11.5634 19.7255 11.5634 18.3048H10.9634C10.9634 19.5773 10.5322 20.4272 9.89098 20.9647C9.2411 21.5095 8.33803 21.7645 7.34627 21.7645V22.3645ZM11.5634 18.3048V16.8109H10.9634V18.3048H11.5634ZM11.0586 16.5916C10.1157 17.4727 8.66396 18.1377 6.87256 18.1377V18.7377C8.81433 18.7377 10.4129 18.0161 11.4682 17.0301L11.0586 16.5916ZM6.87256 18.1377C3.10943 18.1377 0.60072 15.2731 0.60072 11.7712H0.000720203C0.000720203 15.5754 2.74972 18.7377 6.87256 18.7377V18.1377ZM0.60072 11.7712C0.60072 8.21465 3.11097 5.35109 6.87256 5.35109V4.75109C2.74818 4.75109 0.000720203 7.91559 0.000720203 11.7712H0.60072Z" fill="#15573F"/>
  <path fill-rule="evenodd" clip-rule="evenodd" d="M21.7755 8.99811C21.7755 8.03835 21.5387 7.42494 20.6718 7.42494C20.1193 7.42494 19.541 7.66457 19.199 7.87798L19.015 5.71823C19.3048 5.45176 20.4872 5.05116 21.6968 5.05116C23.2742 5.05116 24.194 5.82494 24.4308 7.45176C25.1408 5.9853 26.1658 5.05116 28.0065 5.05116C29.2942 5.05116 30.2146 5.53103 30.5037 6.01152L30.0041 8.46457C29.715 8.01152 28.8211 7.61152 27.6115 7.61152C25.6668 7.61152 24.8781 9.42433 24.5096 11.2914V19.2377H21.7755V8.99811Z" fill="#15573F"/>
  <path fill-rule="evenodd" clip-rule="evenodd" d="M21.7755 8.99811C21.7755 8.03835 21.5387 7.42494 20.6718 7.42494C20.1193 7.42494 19.541 7.66457 19.199 7.87798L19.015 5.71823C19.3048 5.45176 20.4872 5.05116 21.6968 5.05116C23.2742 5.05116 24.194 5.82494 24.4308 7.45176C25.1408 5.9853 26.1658 5.05116 28.0065 5.05116C29.2942 5.05116 30.2146 5.53103 30.5037 6.01152L30.0041 8.46457C29.715 8.01152 28.8211 7.61152 27.6115 7.61152C25.6668 7.61152 24.8781 9.42433 24.5096 11.2914V19.2377H21.7755V8.99811Z" stroke="#15573F" stroke-width="0.6"/>
  <path fill-rule="evenodd" clip-rule="evenodd" d="M44.9344 10.2783C44.9344 8.67835 43.8565 7.23811 41.3852 7.23811C38.8092 7.23811 37.31 8.99786 37.1001 11.0247H44.8815C44.908 10.8113 44.9344 10.5186 44.9344 10.2783ZM47.3793 17.7174C45.96 18.8912 43.9876 19.6113 41.6743 19.6113C36.4954 19.6113 34.2344 16.3582 34.2344 12.3046C34.2344 8.19847 37.0208 4.91798 41.4381 4.91798C45.6179 4.91798 47.5633 7.5314 47.5633 10.7314C47.5633 11.5582 47.4316 12.6784 47.2741 13.1851H37.0472C37.31 15.6113 38.7563 17.2643 41.7531 17.2643C43.6461 17.2643 45.2494 16.5174 46.3014 15.718L47.3793 17.7174Z" fill="#15573F"/>
  <path d="M37.1001 11.0247L36.8017 10.9938L36.7675 11.3247H37.1001V11.0247ZM44.8815 11.0247V11.3247H45.1466L45.1792 11.0616L44.8815 11.0247ZM47.3793 17.7174L47.5705 17.9486L47.7602 17.7917L47.6434 17.575L47.3793 17.7174ZM47.2741 13.1851V13.4851H47.495L47.5606 13.2741L47.2741 13.1851ZM37.0472 13.1851V12.8851H36.713L36.749 13.2174L37.0472 13.1851ZM46.3014 15.718L46.5655 15.5756L46.3991 15.267L46.1199 15.4791L46.3014 15.718ZM45.2344 10.2783C45.2344 9.41092 44.9412 8.56822 44.2952 7.94271C43.6486 7.31651 42.6797 6.93811 41.3852 6.93811V7.53811C42.562 7.53811 43.3678 7.87982 43.8779 8.37375C44.3887 8.86836 44.6344 9.54578 44.6344 10.2783H45.2344ZM41.3852 6.93811C38.6393 6.93811 37.0256 8.83072 36.8017 10.9938L37.3986 11.0556C37.5943 9.16501 38.9791 7.53811 41.3852 7.53811V6.93811ZM37.1001 11.3247H44.8815V10.7247H37.1001V11.3247ZM45.1792 11.0616C45.2064 10.8424 45.2344 10.5361 45.2344 10.2783H44.6344C44.6344 10.5011 44.6095 10.7801 44.5838 10.9878L45.1792 11.0616ZM47.1881 17.4862C45.8281 18.6109 43.9253 19.3113 41.6743 19.3113V19.9113C44.0498 19.9113 46.0919 19.1714 47.5705 17.9486L47.1881 17.4862ZM41.6743 19.3113C39.1503 19.3113 37.3776 18.5208 36.2332 17.2751C35.0847 16.0249 34.5344 14.2783 34.5344 12.3046H33.9344C33.9344 14.3845 34.5147 16.2913 35.7914 17.681C37.0722 19.0753 39.0194 19.9113 41.6743 19.9113V19.3113ZM34.5344 12.3046C34.5344 10.3192 35.2076 8.54849 36.3987 7.27656C37.5877 6.00701 39.3078 5.21798 41.4381 5.21798V4.61798C39.1511 4.61798 37.2693 5.4692 35.9608 6.86642C34.6545 8.26126 33.9344 10.1838 33.9344 12.3046H34.5344ZM41.4381 5.21798C43.4633 5.21798 44.9101 5.84924 45.8515 6.83219C46.7956 7.818 47.2633 9.19083 47.2633 10.7314H47.8633C47.8633 9.07196 47.3583 7.53809 46.2848 6.41719C45.2085 5.29344 43.5927 4.61798 41.4381 4.61798V5.21798ZM47.2633 10.7314C47.2633 11.5431 47.1326 12.6296 46.9876 13.096L47.5606 13.2741C47.7306 12.7271 47.8633 11.5734 47.8633 10.7314H47.2633ZM47.2741 12.8851H37.0472V13.4851H47.2741V12.8851ZM36.749 13.2174C36.8858 14.4804 37.3346 15.5753 38.1704 16.354C39.008 17.1344 40.1988 17.5643 41.7531 17.5643V16.9643C40.3107 16.9643 39.2799 16.5677 38.5794 15.915C37.8771 15.2607 37.4714 14.3159 37.3455 13.1528L36.749 13.2174ZM41.7531 17.5643C43.7245 17.5643 45.39 16.7874 46.4829 15.9568L46.1199 15.4791C45.1089 16.2474 43.5677 16.9643 41.7531 16.9643V17.5643ZM46.0374 15.8603L47.1152 17.8597L47.6434 17.575L46.5655 15.5756L46.0374 15.8603Z" fill="#15573F"/>
  <path fill-rule="evenodd" clip-rule="evenodd" d="M63.0971 10.2783C63.0971 8.67835 62.0192 7.23811 59.5478 7.23811C56.9719 7.23811 55.4726 8.99786 55.2628 11.0247H63.0442C63.0706 10.8113 63.0971 10.5186 63.0971 10.2783ZM65.542 17.7174C64.1226 18.8912 62.1503 19.6113 59.837 19.6113C54.658 19.6113 52.3971 16.3582 52.3971 12.3046C52.3971 8.19847 55.1835 4.91798 59.6007 4.91798C63.7806 4.91798 65.7259 7.5314 65.7259 10.7314C65.7259 11.5582 65.5943 12.6784 65.4368 13.1851H55.2099C55.4726 15.6113 56.919 17.2643 59.9158 17.2643C61.8088 17.2643 63.4121 16.5174 64.4641 15.718L65.542 17.7174Z" fill="#15573F"/>
  <path d="M55.2628 11.0247L54.9644 10.9938L54.9301 11.3247H55.2628V11.0247ZM63.0442 11.0247V11.3247H63.3093L63.3419 11.0616L63.0442 11.0247ZM65.542 17.7174L65.7332 17.9486L65.9229 17.7917L65.806 17.575L65.542 17.7174ZM65.4368 13.1851V13.4851H65.6577L65.7233 13.2741L65.4368 13.1851ZM55.2099 13.1851V12.8851H54.8757L54.9116 13.2174L55.2099 13.1851ZM64.4641 15.718L64.7282 15.5756L64.5618 15.267L64.2826 15.4791L64.4641 15.718ZM63.3971 10.2783C63.3971 9.41092 63.1039 8.56822 62.4579 7.94271C61.8112 7.31651 60.8424 6.93811 59.5478 6.93811V7.53811C60.7247 7.53811 61.5304 7.87982 62.0405 8.37375C62.5513 8.86836 62.7971 9.54578 62.7971 10.2783H63.3971ZM59.5478 6.93811C56.802 6.93811 55.1883 8.83072 54.9644 10.9938L55.5612 11.0556C55.7569 9.16501 57.1418 7.53811 59.5478 7.53811V6.93811ZM55.2628 11.3247H63.0442V10.7247H55.2628V11.3247ZM63.3419 11.0616C63.3691 10.8424 63.3971 10.5361 63.3971 10.2783H62.7971C62.7971 10.5011 62.7722 10.7801 62.7464 10.9878L63.3419 11.0616ZM65.3508 17.4862C63.9908 18.6109 62.088 19.3113 59.837 19.3113V19.9113C62.2125 19.9113 64.2545 19.1714 65.7332 17.9486L65.3508 17.4862ZM59.837 19.3113C57.313 19.3113 55.5402 18.5208 54.3959 17.2751C53.2473 16.0249 52.6971 14.2783 52.6971 12.3046H52.0971C52.0971 14.3845 52.6773 16.2913 53.954 17.681C55.2349 19.0753 57.1821 19.9113 59.837 19.9113V19.3113ZM52.6971 12.3046C52.6971 10.3192 53.3702 8.54849 54.5614 7.27656C55.7504 6.00701 57.4705 5.21798 59.6007 5.21798V4.61798C57.3137 4.61798 55.432 5.4692 54.1235 6.86642C52.8172 8.26126 52.0971 10.1838 52.0971 12.3046H52.6971ZM59.6007 5.21798C61.626 5.21798 63.0727 5.84924 64.0141 6.83219C64.9582 7.818 65.4259 9.19083 65.4259 10.7314H66.0259C66.0259 9.07196 65.5209 7.53809 64.4474 6.41719C63.3712 5.29344 61.7554 4.61798 59.6007 4.61798V5.21798ZM65.4259 10.7314C65.4259 11.5431 65.2953 12.6296 65.1503 13.096L65.7233 13.2741C65.8933 12.7271 66.0259 11.5734 66.0259 10.7314H65.4259ZM65.4368 12.8851H55.2099V13.4851H65.4368V12.8851ZM54.9116 13.2174C55.0484 14.4804 55.4973 15.5753 56.333 16.354C57.1707 17.1344 58.3614 17.5643 59.9158 17.5643V16.9643C58.4733 16.9643 57.4425 16.5677 56.7421 15.915C56.0398 15.2607 55.6341 14.3159 55.5082 13.1528L54.9116 13.2174ZM59.9158 17.5643C61.8872 17.5643 63.5526 16.7874 64.6456 15.9568L64.2826 15.4791C63.2715 16.2474 61.7304 16.9643 59.9158 16.9643V17.5643ZM64.2 15.8603L65.2779 17.8597L65.806 17.575L64.7282 15.5756L64.2 15.8603Z" fill="#15573F"/>
  <path fill-rule="evenodd" clip-rule="evenodd" d="M74.2666 5.29128V7.42481C75.2393 5.98518 76.8696 5.05103 78.9989 5.05103C82.5475 5.05103 84.1778 7.74433 84.1778 11.2114V15.5577C84.1778 16.4913 84.4406 17.1309 85.2822 17.1309C85.7553 17.1309 86.2542 16.9443 86.728 16.651L86.9119 18.8644C86.2807 19.2108 85.2822 19.5047 84.2566 19.5047C82.39 19.5047 81.4438 18.4644 81.4438 16.1712V11.6376C81.4438 9.26506 80.313 7.6114 78.0521 7.6114C76.1067 7.6114 74.7397 9.10469 74.2666 10.6248V19.2376H71.5325V5.29128H74.2666Z" fill="#15573F"/>
  <path fill-rule="evenodd" clip-rule="evenodd" d="M74.2666 5.29128V7.42481C75.2393 5.98518 76.8696 5.05103 78.9989 5.05103C82.5475 5.05103 84.1778 7.74433 84.1778 11.2114V15.5577C84.1778 16.4913 84.4406 17.1309 85.2822 17.1309C85.7553 17.1309 86.2542 16.9443 86.728 16.651L86.9119 18.8644C86.2807 19.2108 85.2822 19.5047 84.2566 19.5047C82.39 19.5047 81.4438 18.4644 81.4438 16.1712V11.6376C81.4438 9.26506 80.313 7.6114 78.0521 7.6114C76.1067 7.6114 74.7397 9.10469 74.2666 10.6248V19.2376H71.5325V5.29128H74.2666Z" stroke="#15573F" stroke-width="0.6"/>
  <path fill-rule="evenodd" clip-rule="evenodd" d="M104.074 1.74531V5.29104H109.437V7.47762H104.074V14.4112C104.074 16.2246 104.863 17.0782 106.282 17.0782C107.334 17.0782 108.569 16.5709 109.332 16.0112L110.226 18.1709C108.99 18.9441 107.36 19.5045 105.467 19.5045C102.917 19.5045 101.34 17.9313 101.34 14.9441V7.47762H98.7634V5.29104H101.34L101.656 1.74531H104.074Z" fill="#1A825A"/>
  <path fill-rule="evenodd" clip-rule="evenodd" d="M104.074 1.74531V5.29104H109.437V7.47762H104.074V14.4112C104.074 16.2246 104.863 17.0782 106.282 17.0782C107.334 17.0782 108.569 16.5709 109.332 16.0112L110.226 18.1709C108.99 18.9441 107.36 19.5045 105.467 19.5045C102.917 19.5045 101.34 17.9313 101.34 14.9441V7.47762H98.7634V5.29104H101.34L101.656 1.74531H104.074Z" stroke="#1A825A" stroke-width="0.6"/>
  <path fill-rule="evenodd" clip-rule="evenodd" d="M118.057 0.304878V7.39817C119.03 5.93171 120.66 5.05122 122.79 5.05122C126.338 5.05122 127.969 7.74451 127.969 11.2116V15.5579C127.969 16.4915 128.231 17.1311 129.073 17.1311C129.546 17.1311 129.993 16.9445 130.519 16.6512L130.703 18.864C130.098 19.211 129.099 19.5043 128.047 19.5043C126.181 19.5043 125.235 18.464 125.235 16.1713V11.6378C125.235 9.26463 124.104 7.61098 121.843 7.61098C119.897 7.61098 118.53 9.10488 118.057 10.625V19.2378H115.323V0.304878H118.057Z" fill="#1A825A"/>
  <path fill-rule="evenodd" clip-rule="evenodd" d="M118.057 0.304878V7.39817C119.03 5.93171 120.66 5.05122 122.79 5.05122C126.338 5.05122 127.969 7.74451 127.969 11.2116V15.5579C127.969 16.4915 128.231 17.1311 129.073 17.1311C129.546 17.1311 129.993 16.9445 130.519 16.6512L130.703 18.864C130.098 19.211 129.099 19.5043 128.047 19.5043C126.181 19.5043 125.235 18.464 125.235 16.1713V11.6378C125.235 9.26463 124.104 7.61098 121.843 7.61098C119.897 7.61098 118.53 9.10488 118.057 10.625V19.2378H115.323V0.304878H118.057Z" stroke="#1A825A" stroke-width="0.6"/>
  <path fill-rule="evenodd" clip-rule="evenodd" d="M147.919 5.29128V15.5577C147.919 16.4913 148.156 17.1309 148.997 17.1309C149.496 17.1309 149.969 16.9443 150.469 16.651L150.679 18.8645C150.048 19.2108 148.997 19.5047 147.997 19.5047C146.499 19.5047 145.605 18.8376 145.289 17.3974C144.264 18.7577 142.582 19.5047 140.452 19.5047C136.903 19.5047 135.3 17.0242 135.3 13.3712V5.29128H138.034V12.9712C138.034 15.5309 138.927 16.9443 141.425 16.9443C143.397 16.9443 144.632 15.6913 145.185 14.4645V5.29128H147.919Z" fill="#1A825A"/>
  <path fill-rule="evenodd" clip-rule="evenodd" d="M147.919 5.29128V15.5577C147.919 16.4913 148.156 17.1309 148.997 17.1309C149.496 17.1309 149.969 16.9443 150.469 16.651L150.679 18.8645C150.048 19.2108 148.997 19.5047 147.997 19.5047C146.499 19.5047 145.605 18.8376 145.289 17.3974C144.264 18.7577 142.582 19.5047 140.452 19.5047C136.903 19.5047 135.3 17.0242 135.3 13.3712V5.29128H138.034V12.9712C138.034 15.5309 138.927 16.9443 141.425 16.9443C143.397 16.9443 144.632 15.6913 145.185 14.4645V5.29128H147.919Z" stroke="#1A825A" stroke-width="0.6"/>
  <path fill-rule="evenodd" clip-rule="evenodd" d="M158.431 5.29128V7.37116C159.377 5.95835 160.928 5.02482 163.032 5.02482C165.503 5.02482 166.922 6.0114 167.606 7.93153C168.474 6.27787 170.182 5.05104 172.601 5.05104C176.15 5.05104 177.622 7.74433 177.622 11.2114V15.5577C177.622 16.4913 177.885 17.1309 178.7 17.1309C179.173 17.1309 179.673 16.9443 180.172 16.651L180.383 18.8645C179.778 19.2108 178.674 19.5047 177.701 19.5047C175.861 19.5047 174.888 18.4645 174.888 16.1712V11.6376C174.888 9.26506 173.863 7.6114 171.602 7.6114C169.709 7.6114 168.5 8.97116 168.053 10.4913V19.2376H165.319V11.6114C165.319 9.23823 164.32 7.6114 162.059 7.6114C160.114 7.6114 158.904 8.99799 158.431 10.5181V19.2376H155.697V5.29128H158.431Z" fill="#1A825A"/>
  <path fill-rule="evenodd" clip-rule="evenodd" d="M158.431 5.29128V7.37116C159.377 5.95835 160.928 5.02482 163.032 5.02482C165.503 5.02482 166.922 6.0114 167.606 7.93153C168.474 6.27787 170.182 5.05104 172.601 5.05104C176.15 5.05104 177.622 7.74433 177.622 11.2114V15.5577C177.622 16.4913 177.885 17.1309 178.7 17.1309C179.173 17.1309 179.673 16.9443 180.172 16.651L180.383 18.8645C179.778 19.2108 178.674 19.5047 177.701 19.5047C175.861 19.5047 174.888 18.4645 174.888 16.1712V11.6376C174.888 9.26506 173.863 7.6114 171.602 7.6114C169.709 7.6114 168.5 8.97116 168.053 10.4913V19.2376H165.319V11.6114C165.319 9.23823 164.32 7.6114 162.059 7.6114C160.114 7.6114 158.904 8.99799 158.431 10.5181V19.2376H155.697V5.29128H158.431Z" stroke="#1A825A" stroke-width="0.6"/>
  <path fill-rule="evenodd" clip-rule="evenodd" d="M191.577 7.47787C190.052 7.47787 188.685 8.27787 187.896 9.1047V15.5047C188.632 16.2779 190.026 17.0779 191.577 17.0779C194.311 17.0779 196.099 15.1047 196.099 12.251C196.099 9.42421 194.311 7.47787 191.577 7.47787ZM192.313 19.5047C190.341 19.5047 188.869 18.7846 187.896 17.7443V19.2376H185.163V0.304695H187.896V6.73152C188.895 5.74494 190.42 5.05165 192.313 5.05165C196.256 5.05165 198.912 8.03823 198.912 12.251C198.912 16.4645 196.256 19.5047 192.313 19.5047Z" fill="#1A825A"/>
  <path d="M187.896 9.1047L187.679 8.89762L187.596 8.98456V9.1047H187.896ZM187.896 15.5047H187.596V15.6247L187.679 15.7116L187.896 15.5047ZM187.896 17.7443L188.115 17.5394L187.596 16.9846V17.7443H187.896ZM187.896 19.2376V19.5376H188.196V19.2376H187.896ZM185.163 19.2376H184.863V19.5376H185.163V19.2376ZM185.163 0.304695V0.00469512H184.863V0.304695H185.163ZM187.896 0.304695H188.196V0.00469512H187.896V0.304695ZM187.896 6.73152H187.596V7.44937L188.107 6.94499L187.896 6.73152ZM191.577 7.17787C189.952 7.17787 188.51 8.02588 187.679 8.89762L188.113 9.31176C188.859 8.52985 190.152 7.77787 191.577 7.77787V7.17787ZM187.596 9.1047V15.5047H188.196V9.1047H187.596ZM187.679 15.7116C188.462 16.5336 189.93 17.3779 191.577 17.3779V16.7779C190.122 16.7779 188.803 16.0222 188.113 15.2978L187.679 15.7116ZM191.577 17.3779C193.02 17.3779 194.232 16.8552 195.083 15.9386C195.932 15.0242 196.399 13.7404 196.399 12.251H195.799C195.799 13.6154 195.372 14.745 194.643 15.5305C193.916 16.3139 192.868 16.7779 191.577 16.7779V17.3779ZM196.399 12.251C196.399 10.7743 195.931 9.50338 195.082 8.59903C194.231 7.69284 193.018 7.17787 191.577 7.17787V7.77787C192.869 7.77787 193.918 8.23607 194.644 9.00975C195.373 9.78528 195.799 10.901 195.799 12.251H196.399ZM192.313 19.2047C190.419 19.2047 189.028 18.5156 188.115 17.5394L187.677 17.9493C188.71 19.0535 190.263 19.8047 192.313 19.8047V19.2047ZM187.596 17.7443V19.2376H188.196V17.7443H187.596ZM187.896 18.9376H185.163V19.5376H187.896V18.9376ZM185.463 19.2376V0.304695H184.863V19.2376H185.463ZM185.163 0.604695H187.896V0.00469512H185.163V0.604695ZM187.596 0.304695V6.73152H188.196V0.304695H187.596ZM188.107 6.94499C189.047 6.01672 190.495 5.35165 192.313 5.35165V4.75165C190.346 4.75165 188.743 5.47316 187.685 6.51806L188.107 6.94499ZM192.313 5.35165C194.204 5.35165 195.772 6.06588 196.869 7.27327C197.968 8.4831 198.612 10.2074 198.612 12.251H199.212C199.212 10.0819 198.527 8.20647 197.313 6.86981C196.096 5.5307 194.365 4.75165 192.313 4.75165V5.35165ZM198.612 12.251C198.612 14.2952 197.968 16.0337 196.868 17.2573C195.77 18.4783 194.203 19.2047 192.313 19.2047V19.8047C194.366 19.8047 196.098 19.0109 197.314 17.6585C198.528 16.3087 199.212 14.4203 199.212 12.251H198.612Z" fill="#1A825A"/>
  <path fill-rule="evenodd" clip-rule="evenodd" d="M205.98 15.8245C207.163 15.8245 207.846 16.4916 207.846 17.6916C207.846 18.9178 207.163 19.5574 205.98 19.5574C204.797 19.5574 204.14 18.9178 204.14 17.6916C204.14 16.4916 204.797 15.8245 205.98 15.8245Z" fill="#1A825A"/>
  <path fill-rule="evenodd" clip-rule="evenodd" d="M205.98 15.8245C207.163 15.8245 207.846 16.4916 207.846 17.6916C207.846 18.9178 207.163 19.5574 205.98 19.5574C204.797 19.5574 204.14 18.9178 204.14 17.6916C204.14 16.4916 204.797 15.8245 205.98 15.8245Z" stroke="#1A825A" stroke-width="0.6"/>
</svg>
